<svg width="81" height="44" viewBox="0 0 81 44" fill="none" xmlns="http://www.w3.org/2000/svg">
<path d="M12.049 7.90909V21H9.93963L3.77131 12.0831H3.66264V21H1.29119V7.90909H3.41335L9.57528 16.8324H9.69034V7.90909H12.049ZM18.8134 21.1918C17.8546 21.1918 17.0236 20.9808 16.3205 20.5589C15.6174 20.1371 15.0719 19.5469 14.6841 18.7884C14.3006 18.0298 14.1088 17.1435 14.1088 16.1293C14.1088 15.1151 14.3006 14.2266 14.6841 13.4638C15.0719 12.701 15.6174 12.1087 16.3205 11.6868C17.0236 11.2649 17.8546 11.054 18.8134 11.054C19.7722 11.054 20.6032 11.2649 21.3063 11.6868C22.0094 12.1087 22.5527 12.701 22.9363 13.4638C23.324 14.2266 23.5179 15.1151 23.5179 16.1293C23.5179 17.1435 23.324 18.0298 22.9363 18.7884C22.5527 19.5469 22.0094 20.1371 21.3063 20.5589C20.6032 20.9808 19.7722 21.1918 18.8134 21.1918ZM18.8262 19.3381C19.3461 19.3381 19.7807 19.1953 20.1301 18.9098C20.4796 18.62 20.7395 18.2322 20.91 17.7464C21.0847 17.2607 21.1721 16.7195 21.1721 16.1229C21.1721 15.522 21.0847 14.9787 20.91 14.4929C20.7395 14.0028 20.4796 13.6129 20.1301 13.3232C19.7807 13.0334 19.3461 12.8885 18.8262 12.8885C18.2935 12.8885 17.8503 13.0334 17.4966 13.3232C17.1472 13.6129 16.8851 14.0028 16.7104 14.4929C16.54 14.9787 16.4547 15.522 16.4547 16.1229C16.4547 16.7195 16.54 17.2607 16.7104 17.7464C16.8851 18.2322 17.1472 18.62 17.4966 18.9098C17.8503 19.1953 18.2935 19.3381 18.8262 19.3381ZM25.4819 21V11.1818H27.6935V12.8501H27.8086C28.0131 12.2876 28.3519 11.8487 28.8249 11.5334C29.2979 11.2138 29.8626 11.054 30.5188 11.054C31.1836 11.054 31.744 11.2159 32.1999 11.5398C32.6602 11.8594 32.984 12.2962 33.1715 12.8501H33.2738C33.4911 12.3047 33.8576 11.87 34.3732 11.5462C34.8931 11.218 35.5089 11.054 36.2205 11.054C37.1239 11.054 37.8612 11.3395 38.4322 11.9105C39.0032 12.4815 39.2887 13.3146 39.2887 14.4098V21H36.9684V14.7678C36.9684 14.1584 36.8065 13.7131 36.4826 13.4318C36.1587 13.1463 35.7624 13.0036 35.2937 13.0036C34.7354 13.0036 34.2987 13.1783 33.9833 13.5277C33.6722 13.8729 33.5167 14.3224 33.5167 14.8764V21H31.2475V14.6719C31.2475 14.1648 31.0941 13.7599 30.7873 13.4574C30.4847 13.1548 30.0884 13.0036 29.5984 13.0036C29.266 13.0036 28.9634 13.0888 28.6907 13.2592C28.418 13.4254 28.2006 13.6619 28.0387 13.9688C27.8768 14.2713 27.7958 14.625 27.7958 15.0298V21H25.4819ZM52.4963 7.90909V21H50.3869L44.2186 12.0831H44.1099V21H41.7385V7.90909H43.8606L50.0226 16.8324H50.1376V7.90909H52.4963ZM59.2607 21.1918C58.3018 21.1918 57.4709 20.9808 56.7678 20.5589C56.0646 20.1371 55.5192 19.5469 55.1314 18.7884C54.7479 18.0298 54.5561 17.1435 54.5561 16.1293C54.5561 15.1151 54.7479 14.2266 55.1314 13.4638C55.5192 12.701 56.0646 12.1087 56.7678 11.6868C57.4709 11.2649 58.3018 11.054 59.2607 11.054C60.2195 11.054 61.0504 11.2649 61.7536 11.6868C62.4567 12.1087 63 12.701 63.3835 13.4638C63.7713 14.2266 63.9652 15.1151 63.9652 16.1293C63.9652 17.1435 63.7713 18.0298 63.3835 18.7884C63 19.5469 62.4567 20.1371 61.7536 20.5589C61.0504 20.9808 60.2195 21.1918 59.2607 21.1918ZM59.2734 19.3381C59.7933 19.3381 60.228 19.1953 60.5774 18.9098C60.9268 18.62 61.1868 18.2322 61.3572 17.7464C61.532 17.2607 61.6193 16.7195 61.6193 16.1229C61.6193 15.522 61.532 14.9787 61.3572 14.4929C61.1868 14.0028 60.9268 13.6129 60.5774 13.3232C60.228 13.0334 59.7933 12.8885 59.2734 12.8885C58.7408 12.8885 58.2976 13.0334 57.9439 13.3232C57.5945 13.6129 57.3324 14.0028 57.1577 14.4929C56.9872 14.9787 56.902 15.522 56.902 16.1229C56.902 16.7195 56.9872 17.2607 57.1577 17.7464C57.3324 18.2322 57.5945 18.62 57.9439 18.9098C58.2976 19.1953 58.7408 19.3381 59.2734 19.3381ZM65.9292 21V11.1818H68.1408V12.8501H68.2559C68.4604 12.2876 68.7992 11.8487 69.2722 11.5334C69.7452 11.2138 70.3098 11.054 70.9661 11.054C71.6309 11.054 72.1912 11.2159 72.6472 11.5398C73.1074 11.8594 73.4313 12.2962 73.6188 12.8501H73.7211C73.9384 12.3047 74.3049 11.87 74.8205 11.5462C75.3404 11.218 75.9561 11.054 76.6678 11.054C77.5712 11.054 78.3084 11.3395 78.8794 11.9105C79.4505 12.4815 79.736 13.3146 79.736 14.4098V21H77.4157V14.7678C77.4157 14.1584 77.2537 13.7131 76.9299 13.4318C76.606 13.1463 76.2097 13.0036 75.7409 13.0036C75.1827 13.0036 74.7459 13.1783 74.4306 13.5277C74.1195 13.8729 73.964 14.3224 73.964 14.8764V21H71.6948V14.6719C71.6948 14.1648 71.5414 13.7599 71.2346 13.4574C70.932 13.1548 70.5357 13.0036 70.0456 13.0036C69.7132 13.0036 69.4107 13.0888 69.138 13.2592C68.8652 13.4254 68.6479 13.6619 68.486 13.9688C68.324 14.2713 68.2431 14.625 68.2431 15.0298V21H65.9292Z" fill="#09090B"/>
<path d="M5.82955 33.4545C5.77841 33.0227 5.57102 32.6875 5.20739 32.4489C4.84375 32.2102 4.39773 32.0909 3.86932 32.0909C3.48295 32.0909 3.14489 32.1534 2.85511 32.2784C2.56818 32.4034 2.34375 32.5753 2.18182 32.794C2.02273 33.0128 1.94318 33.2614 1.94318 33.5398C1.94318 33.7727 1.99858 33.973 2.10938 34.1406C2.22301 34.3054 2.3679 34.4432 2.54403 34.554C2.72017 34.6619 2.90483 34.7514 3.09801 34.8224C3.29119 34.8906 3.46875 34.946 3.63068 34.9886L4.51705 35.2273C4.74432 35.2869 4.99716 35.3693 5.27557 35.4744C5.55682 35.5795 5.82528 35.723 6.08097 35.9048C6.33949 36.0838 6.55256 36.3139 6.72017 36.5952C6.88778 36.8764 6.97159 37.2216 6.97159 37.6307C6.97159 38.1023 6.84801 38.5284 6.60085 38.9091C6.35653 39.2898 5.99858 39.5923 5.52699 39.8168C5.05824 40.0412 4.48864 40.1534 3.81818 40.1534C3.19318 40.1534 2.65199 40.0526 2.1946 39.8509C1.74006 39.6491 1.3821 39.3679 1.12074 39.0071C0.862216 38.6463 0.715909 38.2273 0.681818 37.75H1.77273C1.80114 38.0795 1.91193 38.3523 2.10511 38.5682C2.30114 38.7812 2.5483 38.9403 2.84659 39.0455C3.14773 39.1477 3.47159 39.1989 3.81818 39.1989C4.22159 39.1989 4.58381 39.1335 4.90483 39.0028C5.22585 38.8693 5.48011 38.6847 5.66761 38.4489C5.85511 38.2102 5.94886 37.9318 5.94886 37.6136C5.94886 37.3239 5.8679 37.0881 5.70597 36.9062C5.54403 36.7244 5.33097 36.5767 5.06676 36.4631C4.80256 36.3494 4.51705 36.25 4.21023 36.1648L3.13636 35.858C2.45455 35.6619 1.91477 35.3821 1.51705 35.0185C1.11932 34.6548 0.920455 34.179 0.920455 33.5909C0.920455 33.1023 1.05256 32.6761 1.31676 32.3125C1.58381 31.946 1.94176 31.6619 2.39062 31.4602C2.84233 31.2557 3.34659 31.1534 3.90341 31.1534C4.46591 31.1534 4.96591 31.2543 5.40341 31.456C5.84091 31.6548 6.1875 31.9276 6.44318 32.2741C6.7017 32.6207 6.83807 33.0142 6.85227 33.4545H5.82955ZM10.0558 40L8.06143 33.4545H9.11825L10.533 38.4659H10.6012L11.9989 33.4545H13.0728L14.4535 38.4489H14.5217L15.9364 33.4545H16.9933L14.9989 40H14.0103L12.5785 34.9716H12.4762L11.0444 40H10.0558ZM18.3228 40V33.4545H19.3285V40H18.3228ZM18.8342 32.3636C18.6381 32.3636 18.4691 32.2969 18.3271 32.1634C18.1879 32.0298 18.1183 31.8693 18.1183 31.6818C18.1183 31.4943 18.1879 31.3338 18.3271 31.2003C18.4691 31.0668 18.6381 31 18.8342 31C19.0302 31 19.1978 31.0668 19.337 31.2003C19.479 31.3338 19.5501 31.4943 19.5501 31.6818C19.5501 31.8693 19.479 32.0298 19.337 32.1634C19.1978 32.2969 19.0302 32.3636 18.8342 32.3636ZM24.0852 33.4545V34.3068H20.5568V33.4545H24.0852ZM21.6136 40V32.5511C21.6136 32.1761 21.7017 31.8636 21.8778 31.6136C22.054 31.3636 22.2827 31.1761 22.5639 31.0511C22.8452 30.9261 23.142 30.8636 23.4545 30.8636C23.7017 30.8636 23.9034 30.8835 24.0597 30.9233C24.2159 30.9631 24.3324 31 24.4091 31.0341L24.1193 31.9034C24.0682 31.8864 23.9972 31.8651 23.9062 31.8395C23.8182 31.8139 23.7017 31.8011 23.5568 31.8011C23.2244 31.8011 22.9844 31.8849 22.8366 32.0526C22.6918 32.2202 22.6193 32.4659 22.6193 32.7898V40H21.6136ZM28.3413 33.4545V34.3068H24.9492V33.4545H28.3413ZM25.9379 31.8864H26.9435V38.125C26.9435 38.4091 26.9847 38.6222 27.0671 38.7642C27.1523 38.9034 27.2603 38.9972 27.391 39.0455C27.5245 39.0909 27.6651 39.1136 27.8129 39.1136C27.9237 39.1136 28.0146 39.108 28.0856 39.0966C28.1566 39.0824 28.2134 39.071 28.256 39.0625L28.4606 39.9659C28.3924 39.9915 28.2972 40.017 28.1751 40.0426C28.0529 40.071 27.8981 40.0852 27.7106 40.0852C27.4265 40.0852 27.1481 40.0241 26.8754 39.902C26.6055 39.7798 26.381 39.5938 26.2021 39.3438C26.0259 39.0938 25.9379 38.7784 25.9379 38.3977V31.8864ZM35.7006 40.1364C35.1552 40.1364 34.6737 39.9986 34.256 39.723C33.8384 39.4446 33.5117 39.0526 33.2759 38.5469C33.0401 38.0384 32.9222 37.4375 32.9222 36.7443C32.9222 36.0568 33.0401 35.4602 33.2759 34.9545C33.5117 34.4489 33.8398 34.0582 34.2603 33.7827C34.6808 33.5071 35.1665 33.3693 35.7177 33.3693C36.1438 33.3693 36.4805 33.4403 36.7276 33.5824C36.9776 33.7216 37.168 33.8807 37.2987 34.0597C37.4322 34.2358 37.5359 34.3807 37.6097 34.4943H37.695V31.2727H38.7006V40H37.729V38.9943H37.6097C37.5359 39.1136 37.4308 39.2642 37.2944 39.446C37.158 39.625 36.9634 39.7855 36.7106 39.9276C36.4577 40.0668 36.1211 40.1364 35.7006 40.1364ZM35.837 39.233C36.2404 39.233 36.5813 39.1278 36.8597 38.9176C37.1381 38.7045 37.3498 38.4105 37.4947 38.0355C37.6396 37.6577 37.712 37.2216 37.712 36.7273C37.712 36.2386 37.641 35.8111 37.4989 35.4446C37.3569 35.0753 37.1467 34.7884 36.8683 34.5838C36.5898 34.3764 36.2461 34.2727 35.837 34.2727C35.4109 34.2727 35.0558 34.3821 34.7717 34.6009C34.4904 34.8168 34.2788 35.1108 34.1367 35.483C33.9975 35.8523 33.9279 36.267 33.9279 36.7273C33.9279 37.1932 33.9989 37.6165 34.141 37.9972C34.2859 38.375 34.4989 38.6761 34.7802 38.9006C35.0643 39.1222 35.4165 39.233 35.837 39.233ZM43.4265 40.1364C42.7958 40.1364 42.2518 39.9972 41.7944 39.7188C41.3398 39.4375 40.989 39.0455 40.7418 38.5426C40.4975 38.0369 40.3754 37.4489 40.3754 36.7784C40.3754 36.108 40.4975 35.517 40.7418 35.0057C40.989 34.4915 41.3327 34.0909 41.7731 33.804C42.2163 33.5142 42.7333 33.3693 43.3242 33.3693C43.6651 33.3693 44.0018 33.4261 44.3342 33.5398C44.6665 33.6534 44.9691 33.8381 45.2418 34.0938C45.5146 34.3466 45.7319 34.6818 45.8938 35.0994C46.0558 35.517 46.1367 36.0312 46.1367 36.642V37.0682H41.0913V36.1989H45.114C45.114 35.8295 45.0401 35.5 44.8924 35.2102C44.7475 34.9205 44.5401 34.6918 44.2702 34.5241C44.0032 34.3565 43.6879 34.2727 43.3242 34.2727C42.9237 34.2727 42.5771 34.3722 42.2844 34.571C41.9947 34.767 41.7717 35.0227 41.6154 35.3381C41.4592 35.6534 41.381 35.9915 41.381 36.3523V36.9318C41.381 37.4261 41.4663 37.8452 41.6367 38.1889C41.81 38.5298 42.0501 38.7898 42.3569 38.9688C42.6637 39.1449 43.0202 39.233 43.4265 39.233C43.6907 39.233 43.9293 39.196 44.1424 39.1222C44.3583 39.0455 44.5444 38.9318 44.7006 38.7812C44.8569 38.6278 44.9776 38.4375 45.0629 38.2102L46.0344 38.483C45.9322 38.8125 45.7603 39.1023 45.5188 39.3523C45.2773 39.5994 44.979 39.7926 44.6239 39.9318C44.2688 40.0682 43.8697 40.1364 43.4265 40.1364ZM48.6722 31.2727V40H47.6665V31.2727H48.6722ZM50.5142 40V33.4545H51.5199V40H50.5142ZM51.0256 32.3636C50.8295 32.3636 50.6605 32.2969 50.5185 32.1634C50.3793 32.0298 50.3097 31.8693 50.3097 31.6818C50.3097 31.4943 50.3793 31.3338 50.5185 31.2003C50.6605 31.0668 50.8295 31 51.0256 31C51.2216 31 51.3892 31.0668 51.5284 31.2003C51.6705 31.3338 51.7415 31.4943 51.7415 31.6818C51.7415 31.8693 51.6705 32.0298 51.5284 32.1634C51.3892 32.2969 51.2216 32.3636 51.0256 32.3636ZM58.7141 33.4545L56.2937 40H55.271L52.8505 33.4545H53.9414L55.7482 38.6705H55.8164L57.6232 33.4545H58.7141ZM62.5515 40.1364C61.9208 40.1364 61.3768 39.9972 60.9194 39.7188C60.4648 39.4375 60.114 39.0455 59.8668 38.5426C59.6225 38.0369 59.5004 37.4489 59.5004 36.7784C59.5004 36.108 59.6225 35.517 59.8668 35.0057C60.114 34.4915 60.4577 34.0909 60.8981 33.804C61.3413 33.5142 61.8583 33.3693 62.4492 33.3693C62.7901 33.3693 63.1268 33.4261 63.4592 33.5398C63.7915 33.6534 64.0941 33.8381 64.3668 34.0938C64.6396 34.3466 64.8569 34.6818 65.0188 35.0994C65.1808 35.517 65.2617 36.0312 65.2617 36.642V37.0682H60.2163V36.1989H64.239C64.239 35.8295 64.1651 35.5 64.0174 35.2102C63.8725 34.9205 63.6651 34.6918 63.3952 34.5241C63.1282 34.3565 62.8129 34.2727 62.4492 34.2727C62.0487 34.2727 61.7021 34.3722 61.4094 34.571C61.1197 34.767 60.8967 35.0227 60.7404 35.3381C60.5842 35.6534 60.506 35.9915 60.506 36.3523V36.9318C60.506 37.4261 60.5913 37.8452 60.7617 38.1889C60.935 38.5298 61.1751 38.7898 61.4819 38.9688C61.7887 39.1449 62.1452 39.233 62.5515 39.233C62.8157 39.233 63.0543 39.196 63.2674 39.1222C63.4833 39.0455 63.6694 38.9318 63.8256 38.7812C63.9819 38.6278 64.1026 38.4375 64.1879 38.2102L65.1594 38.483C65.0572 38.8125 64.8853 39.1023 64.6438 39.3523C64.4023 39.5994 64.104 39.7926 63.7489 39.9318C63.3938 40.0682 62.9947 40.1364 62.5515 40.1364ZM66.7915 40V33.4545H67.7631V34.4432H67.8313C67.9506 34.1193 68.1665 33.8565 68.479 33.6548C68.7915 33.4531 69.1438 33.3523 69.5359 33.3523C69.6097 33.3523 69.7021 33.3537 69.8129 33.3565C69.9237 33.3594 70.0075 33.3636 70.0643 33.3693V34.392C70.0302 34.3835 69.9521 34.3707 69.8299 34.3537C69.7106 34.3338 69.5842 34.3239 69.4506 34.3239C69.1325 34.3239 68.8484 34.3906 68.5984 34.5241C68.3512 34.6548 68.1552 34.8366 68.0103 35.0696C67.8683 35.2997 67.7972 35.5625 67.7972 35.858V40H66.7915ZM72.1033 42.4545C71.9329 42.4545 71.7809 42.4403 71.6474 42.4119C71.5138 42.3864 71.4215 42.3608 71.3704 42.3352L71.6261 41.4489C71.8704 41.5114 72.0863 41.5341 72.2738 41.517C72.4613 41.5 72.6275 41.4162 72.7724 41.2656C72.9201 41.1179 73.055 40.8778 73.1772 40.5455L73.3647 40.0341L70.9442 33.4545H72.0352L73.842 38.6705H73.9102L75.717 33.4545H76.8079L74.0295 40.9545C73.9045 41.2926 73.7496 41.5724 73.565 41.794C73.3803 42.0185 73.1658 42.1847 72.9215 42.2926C72.68 42.4006 72.4073 42.4545 72.1033 42.4545Z" fill="#71717A"/>
</svg>
