<svg width="88" height="44" viewBox="0 0 88 44" fill="none" xmlns="http://www.w3.org/2000/svg">
<path d="M13.3878 6.45455V21H11.044L4.19034 11.0923H4.0696V21H1.43466V6.45455H3.79261L10.6392 16.3693H10.767V6.45455H13.3878ZM20.4038 21.2131C19.3384 21.2131 18.4151 20.9787 17.6339 20.5099C16.8526 20.0412 16.2466 19.3854 15.8157 18.5426C15.3896 17.6998 15.1765 16.715 15.1765 15.5881C15.1765 14.4612 15.3896 13.474 15.8157 12.6264C16.2466 11.7789 16.8526 11.1207 17.6339 10.652C18.4151 10.1832 19.3384 9.94886 20.4038 9.94886C21.4691 9.94886 22.3924 10.1832 23.1737 10.652C23.9549 11.1207 24.5586 11.7789 24.9847 12.6264C25.4156 13.474 25.631 14.4612 25.631 15.5881C25.631 16.715 25.4156 17.6998 24.9847 18.5426C24.5586 19.3854 23.9549 20.0412 23.1737 20.5099C22.3924 20.9787 21.4691 21.2131 20.4038 21.2131ZM20.418 19.1534C20.9956 19.1534 21.4786 18.9948 21.8668 18.6776C22.2551 18.3556 22.5439 17.9247 22.7333 17.3849C22.9274 16.8452 23.0245 16.2438 23.0245 15.581C23.0245 14.9134 22.9274 14.3097 22.7333 13.7699C22.5439 13.2254 22.2551 12.7921 21.8668 12.4702C21.4786 12.1482 20.9956 11.9872 20.418 11.9872C19.8261 11.9872 19.3337 12.1482 18.9407 12.4702C18.5524 12.7921 18.2612 13.2254 18.0671 13.7699C17.8777 14.3097 17.783 14.9134 17.783 15.581C17.783 16.2438 17.8777 16.8452 18.0671 17.3849C18.2612 17.9247 18.5524 18.3556 18.9407 18.6776C19.3337 18.9948 19.8261 19.1534 20.418 19.1534ZM27.3132 21V10.0909H29.7706V11.9446H29.8984C30.1257 11.3196 30.5021 10.8319 31.0277 10.4815C31.5533 10.1264 32.1806 9.94886 32.9098 9.94886C33.6484 9.94886 34.2711 10.1288 34.7777 10.4886C35.2891 10.8437 35.6489 11.3291 35.8572 11.9446H35.9709C36.2124 11.3385 36.6196 10.8556 37.1925 10.4957C37.7701 10.1312 38.4543 9.94886 39.245 9.94886C40.2488 9.94886 41.0679 10.2661 41.7024 10.9006C42.3369 11.535 42.6541 12.4607 42.6541 13.6776V21H40.076V14.0753C40.076 13.3982 39.8961 12.9034 39.5362 12.5909C39.1764 12.2737 38.736 12.1151 38.2152 12.1151C37.5949 12.1151 37.1096 12.3092 36.7592 12.6974C36.4136 13.081 36.2408 13.5805 36.2408 14.196V21H33.7195V13.9688C33.7195 13.4053 33.549 12.9555 33.2081 12.6193C32.8719 12.2831 32.4316 12.1151 31.8871 12.1151C31.5178 12.1151 31.1816 12.2098 30.8786 12.3991C30.5755 12.5838 30.334 12.8466 30.1541 13.1875C29.9742 13.5237 29.8842 13.9167 29.8842 14.3665V21H27.3132Z" fill="#FAFAFA"/>
<path d="M56.8292 6.45455V21H54.4854L47.6317 11.0923H47.511V21H44.8761V6.45455H47.234L54.0806 16.3693H54.2085V6.45455H56.8292ZM63.8452 21.2131C62.7798 21.2131 61.8565 20.9787 61.0753 20.5099C60.294 20.0412 59.688 19.3854 59.2571 18.5426C58.831 17.6998 58.6179 16.715 58.6179 15.5881C58.6179 14.4612 58.831 13.474 59.2571 12.6264C59.688 11.7789 60.294 11.1207 61.0753 10.652C61.8565 10.1832 62.7798 9.94886 63.8452 9.94886C64.9105 9.94886 65.8338 10.1832 66.6151 10.652C67.3963 11.1207 68 11.7789 68.4261 12.6264C68.857 13.474 69.0724 14.4612 69.0724 15.5881C69.0724 16.715 68.857 17.6998 68.4261 18.5426C68 19.3854 67.3963 20.0412 66.6151 20.5099C65.8338 20.9787 64.9105 21.2131 63.8452 21.2131ZM63.8594 19.1534C64.437 19.1534 64.92 18.9948 65.3082 18.6776C65.6965 18.3556 65.9853 17.9247 66.1747 17.3849C66.3688 16.8452 66.4659 16.2438 66.4659 15.581C66.4659 14.9134 66.3688 14.3097 66.1747 13.7699C65.9853 13.2254 65.6965 12.7921 65.3082 12.4702C64.92 12.1482 64.437 11.9872 63.8594 11.9872C63.2675 11.9872 62.7751 12.1482 62.3821 12.4702C61.9938 12.7921 61.7027 13.2254 61.5085 13.7699C61.3191 14.3097 61.2244 14.9134 61.2244 15.581C61.2244 16.2438 61.3191 16.8452 61.5085 17.3849C61.7027 17.9247 61.9938 18.3556 62.3821 18.6776C62.7751 18.9948 63.2675 19.1534 63.8594 19.1534ZM70.7546 21V10.0909H73.212V11.9446H73.3398C73.5671 11.3196 73.9435 10.8319 74.4691 10.4815C74.9947 10.1264 75.622 9.94886 76.3512 9.94886C77.0898 9.94886 77.7125 10.1288 78.2191 10.4886C78.7305 10.8437 79.0903 11.3291 79.2987 11.9446H79.4123C79.6538 11.3385 80.061 10.8556 80.6339 10.4957C81.2115 10.1312 81.8957 9.94886 82.6864 9.94886C83.6902 9.94886 84.5094 10.2661 85.1438 10.9006C85.7783 11.535 86.0955 12.4607 86.0955 13.6776V21H83.5174V14.0753C83.5174 13.3982 83.3375 12.9034 82.9776 12.5909C82.6178 12.2737 82.1774 12.1151 81.6566 12.1151C81.0363 12.1151 80.551 12.3092 80.2006 12.6974C79.855 13.081 79.6822 13.5805 79.6822 14.196V21H77.1609V13.9688C77.1609 13.4053 76.9904 12.9555 76.6495 12.6193C76.3133 12.2831 75.873 12.1151 75.3285 12.1151C74.9592 12.1151 74.623 12.2098 74.32 12.3991C74.0169 12.5838 73.7754 12.8466 73.5955 13.1875C73.4156 13.5237 73.3256 13.9167 73.3256 14.3665V21H70.7546Z" fill="#EF4444"/>
<path d="M6.22212 33.4545C6.17099 33.0227 5.9636 32.6875 5.59996 32.4489C5.23633 32.2102 4.79031 32.0909 4.2619 32.0909C3.87553 32.0909 3.53746 32.1534 3.24769 32.2784C2.96076 32.4034 2.73633 32.5753 2.5744 32.794C2.41531 33.0128 2.33576 33.2614 2.33576 33.5398C2.33576 33.7727 2.39116 33.973 2.50195 34.1406C2.61559 34.3054 2.76048 34.4432 2.93661 34.554C3.11275 34.6619 3.29741 34.7514 3.49059 34.8224C3.68377 34.8906 3.86133 34.946 4.02326 34.9886L4.90962 35.2273C5.1369 35.2869 5.38974 35.3693 5.66815 35.4744C5.9494 35.5795 6.21786 35.723 6.47354 35.9048C6.73207 36.0838 6.94514 36.3139 7.11275 36.5952C7.28036 36.8764 7.36417 37.2216 7.36417 37.6307C7.36417 38.1023 7.24059 38.5284 6.99343 38.9091C6.74911 39.2898 6.39116 39.5923 5.91957 39.8168C5.45082 40.0412 4.88121 40.1534 4.21076 40.1534C3.58576 40.1534 3.04457 40.0526 2.58718 39.8509C2.13263 39.6491 1.77468 39.3679 1.51332 39.0071C1.25479 38.6463 1.10849 38.2273 1.0744 37.75H2.16531C2.19371 38.0795 2.30451 38.3523 2.49769 38.5682C2.69371 38.7812 2.94087 38.9403 3.23917 39.0455C3.54031 39.1477 3.86417 39.1989 4.21076 39.1989C4.61417 39.1989 4.97639 39.1335 5.29741 39.0028C5.61843 38.8693 5.87269 38.6847 6.06019 38.4489C6.24769 38.2102 6.34144 37.9318 6.34144 37.6136C6.34144 37.3239 6.26048 37.0881 6.09854 36.9062C5.93661 36.7244 5.72354 36.5767 5.45934 36.4631C5.19514 36.3494 4.90962 36.25 4.60281 36.1648L3.52894 35.858C2.84712 35.6619 2.30735 35.3821 1.90962 35.0185C1.5119 34.6548 1.31303 34.179 1.31303 33.5909C1.31303 33.1023 1.44513 32.6761 1.70934 32.3125C1.97638 31.946 2.33434 31.6619 2.7832 31.4602C3.23491 31.2557 3.73917 31.1534 4.29599 31.1534C4.85849 31.1534 5.35849 31.2543 5.79599 31.456C6.23349 31.6548 6.58008 31.9276 6.83576 32.2741C7.09428 32.6207 7.23065 33.0142 7.24485 33.4545H6.22212ZM10.4483 40L8.45401 33.4545H9.51083L10.9256 38.4659H10.9938L12.3915 33.4545H13.4654L14.8461 38.4489H14.9142L16.329 33.4545H17.3858L15.3915 40H14.4029L12.9711 34.9716H12.8688L11.437 40H10.4483ZM18.7154 40V33.4545H19.7211V40H18.7154ZM19.2267 32.3636C19.0307 32.3636 18.8617 32.2969 18.7196 32.1634C18.5804 32.0298 18.5108 31.8693 18.5108 31.6818C18.5108 31.4943 18.5804 31.3338 18.7196 31.2003C18.8617 31.0668 19.0307 31 19.2267 31C19.4228 31 19.5904 31.0668 19.7296 31.2003C19.8716 31.3338 19.9426 31.4943 19.9426 31.6818C19.9426 31.8693 19.8716 32.0298 19.7296 32.1634C19.5904 32.2969 19.4228 32.3636 19.2267 32.3636ZM24.4778 33.4545V34.3068H20.9494V33.4545H24.4778ZM22.0062 40V32.5511C22.0062 32.1761 22.0943 31.8636 22.2704 31.6136C22.4466 31.3636 22.6752 31.1761 22.9565 31.0511C23.2377 30.9261 23.5346 30.8636 23.8471 30.8636C24.0943 30.8636 24.296 30.8835 24.4522 30.9233C24.6085 30.9631 24.725 31 24.8017 31.0341L24.5119 31.9034C24.4608 31.8864 24.3897 31.8651 24.2988 31.8395C24.2108 31.8139 24.0943 31.8011 23.9494 31.8011C23.617 31.8011 23.377 31.8849 23.2292 32.0526C23.0843 32.2202 23.0119 32.4659 23.0119 32.7898V40H22.0062ZM28.7338 33.4545V34.3068H25.3418V33.4545H28.7338ZM26.3304 31.8864H27.3361V38.125C27.3361 38.4091 27.3773 38.6222 27.4597 38.7642C27.5449 38.9034 27.6529 38.9972 27.7836 39.0455C27.9171 39.0909 28.0577 39.1136 28.2054 39.1136C28.3162 39.1136 28.4071 39.108 28.4782 39.0966C28.5492 39.0824 28.606 39.071 28.6486 39.0625L28.8532 39.9659C28.785 39.9915 28.6898 40.017 28.5676 40.0426C28.4455 40.071 28.2907 40.0852 28.1032 40.0852C27.8191 40.0852 27.5407 40.0241 27.2679 39.902C26.998 39.7798 26.7736 39.5938 26.5946 39.3438C26.4185 39.0938 26.3304 38.7784 26.3304 38.3977V31.8864ZM36.0932 40.1364C35.5478 40.1364 35.0662 39.9986 34.6486 39.723C34.231 39.4446 33.9043 39.0526 33.6685 38.5469C33.4327 38.0384 33.3148 37.4375 33.3148 36.7443C33.3148 36.0568 33.4327 35.4602 33.6685 34.9545C33.9043 34.4489 34.2324 34.0582 34.6529 33.7827C35.0733 33.5071 35.5591 33.3693 36.1103 33.3693C36.5364 33.3693 36.873 33.4403 37.1202 33.5824C37.3702 33.7216 37.5605 33.8807 37.6912 34.0597C37.8248 34.2358 37.9284 34.3807 38.0023 34.4943H38.0875V31.2727H39.0932V40H38.1216V38.9943H38.0023C37.9284 39.1136 37.8233 39.2642 37.687 39.446C37.5506 39.625 37.356 39.7855 37.1032 39.9276C36.8503 40.0668 36.5137 40.1364 36.0932 40.1364ZM36.2296 39.233C36.633 39.233 36.9739 39.1278 37.2523 38.9176C37.5307 38.7045 37.7424 38.4105 37.8873 38.0355C38.0321 37.6577 38.1046 37.2216 38.1046 36.7273C38.1046 36.2386 38.0336 35.8111 37.8915 35.4446C37.7495 35.0753 37.5392 34.7884 37.2608 34.5838C36.9824 34.3764 36.6387 34.2727 36.2296 34.2727C35.8034 34.2727 35.4483 34.3821 35.1642 34.6009C34.883 34.8168 34.6713 35.1108 34.5293 35.483C34.3901 35.8523 34.3205 36.267 34.3205 36.7273C34.3205 37.1932 34.3915 37.6165 34.5336 37.9972C34.6784 38.375 34.8915 38.6761 35.1728 38.9006C35.4569 39.1222 35.8091 39.233 36.2296 39.233ZM43.8191 40.1364C43.1884 40.1364 42.6444 39.9972 42.187 39.7188C41.7324 39.4375 41.3816 39.0455 41.1344 38.5426C40.8901 38.0369 40.7679 37.4489 40.7679 36.7784C40.7679 36.108 40.8901 35.517 41.1344 35.0057C41.3816 34.4915 41.7253 34.0909 42.1657 33.804C42.6088 33.5142 43.1259 33.3693 43.7168 33.3693C44.0577 33.3693 44.3944 33.4261 44.7267 33.5398C45.0591 33.6534 45.3617 33.8381 45.6344 34.0938C45.9071 34.3466 46.1245 34.6818 46.2864 35.0994C46.4483 35.517 46.5293 36.0312 46.5293 36.642V37.0682H41.4838V36.1989H45.5066C45.5066 35.8295 45.4327 35.5 45.285 35.2102C45.1401 34.9205 44.9327 34.6918 44.6628 34.5241C44.3958 34.3565 44.0804 34.2727 43.7168 34.2727C43.3162 34.2727 42.9696 34.3722 42.677 34.571C42.3873 34.767 42.1642 35.0227 42.008 35.3381C41.8517 35.6534 41.7736 35.9915 41.7736 36.3523V36.9318C41.7736 37.4261 41.8588 37.8452 42.0293 38.1889C42.2026 38.5298 42.4426 38.7898 42.7495 38.9688C43.0563 39.1449 43.4128 39.233 43.8191 39.233C44.0833 39.233 44.3219 39.196 44.535 39.1222C44.7509 39.0455 44.937 38.9318 45.0932 38.7812C45.2495 38.6278 45.3702 38.4375 45.4554 38.2102L46.427 38.483C46.3248 38.8125 46.1529 39.1023 45.9114 39.3523C45.6699 39.5994 45.3716 39.7926 45.0165 39.9318C44.6614 40.0682 44.2623 40.1364 43.8191 40.1364ZM49.0648 31.2727V40H48.0591V31.2727H49.0648ZM50.9068 40V33.4545H51.9125V40H50.9068ZM51.4181 32.3636C51.2221 32.3636 51.0531 32.2969 50.911 32.1634C50.7718 32.0298 50.7022 31.8693 50.7022 31.6818C50.7022 31.4943 50.7718 31.3338 50.911 31.2003C51.0531 31.0668 51.2221 31 51.4181 31C51.6142 31 51.7818 31.0668 51.921 31.2003C52.063 31.3338 52.1341 31.4943 52.1341 31.6818C52.1341 31.8693 52.063 32.0298 51.921 32.1634C51.7818 32.2969 51.6142 32.3636 51.4181 32.3636ZM59.1067 33.4545L56.6863 40H55.6635L53.2431 33.4545H54.334L56.1408 38.6705H56.209L58.0158 33.4545H59.1067ZM62.9441 40.1364C62.3134 40.1364 61.7694 39.9972 61.312 39.7188C60.8574 39.4375 60.5066 39.0455 60.2594 38.5426C60.0151 38.0369 59.8929 37.4489 59.8929 36.7784C59.8929 36.108 60.0151 35.517 60.2594 35.0057C60.5066 34.4915 60.8503 34.0909 61.2907 33.804C61.7338 33.5142 62.2509 33.3693 62.8418 33.3693C63.1827 33.3693 63.5194 33.4261 63.8517 33.5398C64.1841 33.6534 64.4867 33.8381 64.7594 34.0938C65.0321 34.3466 65.2495 34.6818 65.4114 35.0994C65.5733 35.517 65.6543 36.0312 65.6543 36.642V37.0682H60.6088V36.1989H64.6316C64.6316 35.8295 64.5577 35.5 64.41 35.2102C64.2651 34.9205 64.0577 34.6918 63.7878 34.5241C63.5208 34.3565 63.2054 34.2727 62.8418 34.2727C62.4412 34.2727 62.0946 34.3722 61.802 34.571C61.5123 34.767 61.2892 35.0227 61.133 35.3381C60.9767 35.6534 60.8986 35.9915 60.8986 36.3523V36.9318C60.8986 37.4261 60.9838 37.8452 61.1543 38.1889C61.3276 38.5298 61.5676 38.7898 61.8745 38.9688C62.1813 39.1449 62.5378 39.233 62.9441 39.233C63.2083 39.233 63.4469 39.196 63.66 39.1222C63.8759 39.0455 64.062 38.9318 64.2182 38.7812C64.3745 38.6278 64.4952 38.4375 64.5804 38.2102L65.552 38.483C65.4498 38.8125 65.2779 39.1023 65.0364 39.3523C64.7949 39.5994 64.4966 39.7926 64.1415 39.9318C63.7864 40.0682 63.3873 40.1364 62.9441 40.1364ZM67.1841 40V33.4545H68.1557V34.4432H68.2239C68.3432 34.1193 68.5591 33.8565 68.8716 33.6548C69.1841 33.4531 69.5364 33.3523 69.9284 33.3523C70.0023 33.3523 70.0946 33.3537 70.2054 33.3565C70.3162 33.3594 70.4 33.3636 70.4569 33.3693V34.392C70.4228 34.3835 70.3446 34.3707 70.2225 34.3537C70.1032 34.3338 69.9767 34.3239 69.8432 34.3239C69.525 34.3239 69.2409 34.3906 68.9909 34.5241C68.7438 34.6548 68.5478 34.8366 68.4029 35.0696C68.2608 35.2997 68.1898 35.5625 68.1898 35.858V40H67.1841ZM72.4959 42.4545C72.3255 42.4545 72.1735 42.4403 72.04 42.4119C71.9064 42.3864 71.8141 42.3608 71.763 42.3352L72.0186 41.4489C72.263 41.5114 72.4789 41.5341 72.6664 41.517C72.8539 41.5 73.0201 41.4162 73.165 41.2656C73.3127 41.1179 73.4476 40.8778 73.5698 40.5455L73.7573 40.0341L71.3368 33.4545H72.4277L74.2346 38.6705H74.3027L76.1096 33.4545H77.2005L74.4221 40.9545C74.2971 41.2926 74.1422 41.5724 73.9576 41.794C73.7729 42.0185 73.5584 42.1847 73.3141 42.2926C73.0726 42.4006 72.7999 42.4545 72.4959 42.4545Z" fill="#F4F4F5"/>
</svg>
